<mxfile host="app.diagrams.net" modified="2024-03-27T12:38:05.188Z" agent="Mozilla/5.0 (Windows NT 10.0; Win64; x64) AppleWebKit/537.36 (KHTML, like Gecko) Chrome/123.0.0.0 Safari/537.36" etag="vmdbdFJQhZq7-QZGacrQ" version="24.2.0" type="device">
  <diagram name="Page-1" id="qfjBZq79WaYj33tmUW3t">
    <mxGraphModel dx="1050" dy="565" grid="0" gridSize="10" guides="1" tooltips="1" connect="1" arrows="1" fold="1" page="0" pageScale="1" pageWidth="1100" pageHeight="850" math="0" shadow="0">
      <root>
        <mxCell id="0" />
        <mxCell id="1" parent="0" />
        <mxCell id="TQXjRObuqB4yNe2lknmc-1" value="" style="rounded=0;whiteSpace=wrap;html=1;" parent="1" vertex="1">
          <mxGeometry x="50" y="80" width="730" height="410" as="geometry" />
        </mxCell>
        <mxCell id="TQXjRObuqB4yNe2lknmc-2" value="Problem Name" style="swimlane;whiteSpace=wrap;html=1;fillColor=#dae8fc;strokeColor=#6c8ebf;" parent="1" vertex="1">
          <mxGeometry x="170" y="160" width="110" height="310" as="geometry" />
        </mxCell>
        <mxCell id="TQXjRObuqB4yNe2lknmc-10" value="&lt;font style=&quot;font-size: 14px;&quot;&gt;&lt;u&gt;A-String Task&lt;/u&gt;&lt;/font&gt;" style="text;html=1;align=center;verticalAlign=middle;whiteSpace=wrap;rounded=0;" parent="TQXjRObuqB4yNe2lknmc-2" vertex="1">
          <mxGeometry x="10" y="30" width="90" height="30" as="geometry" />
        </mxCell>
        <mxCell id="TQXjRObuqB4yNe2lknmc-16" value="&lt;span style=&quot;font-size: 14px;&quot;&gt;&lt;u&gt;Triangle&lt;/u&gt;&lt;/span&gt;" style="text;html=1;align=center;verticalAlign=middle;whiteSpace=wrap;rounded=0;" parent="TQXjRObuqB4yNe2lknmc-2" vertex="1">
          <mxGeometry x="10" y="80" width="90" height="30" as="geometry" />
        </mxCell>
        <mxCell id="TQXjRObuqB4yNe2lknmc-26" value="&lt;span style=&quot;font-size: 14px;&quot;&gt;&lt;u&gt;TryCatch&lt;/u&gt;&lt;/span&gt;" style="text;html=1;align=center;verticalAlign=middle;whiteSpace=wrap;rounded=0;" parent="TQXjRObuqB4yNe2lknmc-2" vertex="1">
          <mxGeometry x="10" y="120" width="90" height="30" as="geometry" />
        </mxCell>
        <mxCell id="TQXjRObuqB4yNe2lknmc-31" value="" style="endArrow=none;html=1;rounded=0;" parent="TQXjRObuqB4yNe2lknmc-2" edge="1">
          <mxGeometry width="50" height="50" relative="1" as="geometry">
            <mxPoint x="-100" y="160" as="sourcePoint" />
            <mxPoint x="590" y="160" as="targetPoint" />
          </mxGeometry>
        </mxCell>
        <mxCell id="TQXjRObuqB4yNe2lknmc-4" value="Your submission" style="swimlane;whiteSpace=wrap;html=1;fillColor=#dae8fc;strokeColor=#6c8ebf;" parent="1" vertex="1">
          <mxGeometry x="280" y="160" width="120" height="310" as="geometry" />
        </mxCell>
        <mxCell id="TQXjRObuqB4yNe2lknmc-17" value="&lt;font style=&quot;font-size: 14px;&quot;&gt;&lt;u&gt;2278986538&lt;/u&gt;&lt;/font&gt;" style="text;html=1;align=center;verticalAlign=middle;whiteSpace=wrap;rounded=0;" parent="TQXjRObuqB4yNe2lknmc-4" vertex="1">
          <mxGeometry x="15" y="80" width="90" height="30" as="geometry" />
        </mxCell>
        <mxCell id="TQXjRObuqB4yNe2lknmc-22" value="" style="endArrow=none;html=1;rounded=0;" parent="TQXjRObuqB4yNe2lknmc-4" edge="1">
          <mxGeometry width="50" height="50" relative="1" as="geometry">
            <mxPoint x="-210" y="110" as="sourcePoint" />
            <mxPoint x="480" y="110" as="targetPoint" />
          </mxGeometry>
        </mxCell>
        <mxCell id="TQXjRObuqB4yNe2lknmc-27" value="&lt;font style=&quot;font-size: 14px;&quot;&gt;&lt;u&gt;2278986530&lt;/u&gt;&lt;/font&gt;" style="text;html=1;align=center;verticalAlign=middle;whiteSpace=wrap;rounded=0;" parent="TQXjRObuqB4yNe2lknmc-4" vertex="1">
          <mxGeometry x="15" y="120" width="90" height="30" as="geometry" />
        </mxCell>
        <mxCell id="TQXjRObuqB4yNe2lknmc-5" value="Verdict" style="swimlane;whiteSpace=wrap;html=1;startSize=23;fillColor=#dae8fc;strokeColor=#6c8ebf;" parent="1" vertex="1">
          <mxGeometry x="400" y="160" width="110" height="310" as="geometry" />
        </mxCell>
        <mxCell id="TQXjRObuqB4yNe2lknmc-12" value="&lt;font style=&quot;font-size: 14px;&quot;&gt;Accepted&lt;/font&gt;" style="text;html=1;align=center;verticalAlign=middle;whiteSpace=wrap;rounded=0;" parent="TQXjRObuqB4yNe2lknmc-5" vertex="1">
          <mxGeometry x="10" y="30" width="90" height="30" as="geometry" />
        </mxCell>
        <mxCell id="TQXjRObuqB4yNe2lknmc-18" value="&lt;font style=&quot;font-size: 14px;&quot;&gt;Wrong&lt;/font&gt;" style="text;html=1;align=center;verticalAlign=middle;whiteSpace=wrap;rounded=0;" parent="TQXjRObuqB4yNe2lknmc-5" vertex="1">
          <mxGeometry x="10" y="80" width="90" height="30" as="geometry" />
        </mxCell>
        <mxCell id="TQXjRObuqB4yNe2lknmc-21" value="" style="endArrow=none;html=1;rounded=0;" parent="TQXjRObuqB4yNe2lknmc-5" edge="1">
          <mxGeometry width="50" height="50" relative="1" as="geometry">
            <mxPoint x="-330" y="70" as="sourcePoint" />
            <mxPoint x="360" y="70" as="targetPoint" />
          </mxGeometry>
        </mxCell>
        <mxCell id="TQXjRObuqB4yNe2lknmc-28" value="&lt;font style=&quot;font-size: 14px;&quot;&gt;Wrong&lt;/font&gt;" style="text;html=1;align=center;verticalAlign=middle;whiteSpace=wrap;rounded=0;" parent="TQXjRObuqB4yNe2lknmc-5" vertex="1">
          <mxGeometry x="10" y="120" width="90" height="30" as="geometry" />
        </mxCell>
        <mxCell id="TQXjRObuqB4yNe2lknmc-6" value="Online Judge" style="swimlane;whiteSpace=wrap;html=1;fillColor=#dae8fc;strokeColor=#6c8ebf;" parent="1" vertex="1">
          <mxGeometry x="70" y="160" width="100" height="310" as="geometry" />
        </mxCell>
        <mxCell id="TQXjRObuqB4yNe2lknmc-9" value="&lt;font style=&quot;font-size: 14px;&quot;&gt;Codeforces&lt;/font&gt;" style="text;html=1;align=center;verticalAlign=middle;whiteSpace=wrap;rounded=0;" parent="TQXjRObuqB4yNe2lknmc-6" vertex="1">
          <mxGeometry x="20" y="30" width="60" height="30" as="geometry" />
        </mxCell>
        <mxCell id="TQXjRObuqB4yNe2lknmc-15" value="&lt;font style=&quot;font-size: 14px;&quot;&gt;LightOJ&lt;/font&gt;" style="text;html=1;align=center;verticalAlign=middle;whiteSpace=wrap;rounded=0;" parent="TQXjRObuqB4yNe2lknmc-6" vertex="1">
          <mxGeometry x="20" y="80" width="60" height="30" as="geometry" />
        </mxCell>
        <mxCell id="TQXjRObuqB4yNe2lknmc-25" value="&lt;font style=&quot;font-size: 14px;&quot;&gt;CodeSphere&lt;/font&gt;" style="text;html=1;align=center;verticalAlign=middle;whiteSpace=wrap;rounded=0;" parent="TQXjRObuqB4yNe2lknmc-6" vertex="1">
          <mxGeometry x="20" y="120" width="60" height="30" as="geometry" />
        </mxCell>
        <mxCell id="TQXjRObuqB4yNe2lknmc-7" value="When" style="swimlane;whiteSpace=wrap;html=1;fillColor=#dae8fc;strokeColor=#6c8ebf;" parent="1" vertex="1">
          <mxGeometry x="510" y="160" width="110" height="310" as="geometry" />
        </mxCell>
        <mxCell id="TQXjRObuqB4yNe2lknmc-13" value="&lt;font style=&quot;font-size: 14px;&quot;&gt;3 hours ago&lt;/font&gt;" style="text;html=1;align=center;verticalAlign=middle;whiteSpace=wrap;rounded=0;" parent="TQXjRObuqB4yNe2lknmc-7" vertex="1">
          <mxGeometry x="15" y="30" width="80" height="30" as="geometry" />
        </mxCell>
        <mxCell id="TQXjRObuqB4yNe2lknmc-19" value="&lt;font style=&quot;font-size: 14px;&quot;&gt;2 days ago&lt;/font&gt;" style="text;html=1;align=center;verticalAlign=middle;whiteSpace=wrap;rounded=0;" parent="TQXjRObuqB4yNe2lknmc-7" vertex="1">
          <mxGeometry x="15" y="80" width="80" height="30" as="geometry" />
        </mxCell>
        <mxCell id="TQXjRObuqB4yNe2lknmc-29" value="&lt;font style=&quot;font-size: 14px;&quot;&gt;4 days ago&lt;/font&gt;" style="text;html=1;align=center;verticalAlign=middle;whiteSpace=wrap;rounded=0;" parent="TQXjRObuqB4yNe2lknmc-7" vertex="1">
          <mxGeometry x="15" y="120" width="80" height="30" as="geometry" />
        </mxCell>
        <mxCell id="TQXjRObuqB4yNe2lknmc-8" value="Which Contest" style="swimlane;whiteSpace=wrap;html=1;fillColor=#dae8fc;strokeColor=#6c8ebf;" parent="1" vertex="1">
          <mxGeometry x="620" y="160" width="140" height="310" as="geometry" />
        </mxCell>
        <mxCell id="TQXjRObuqB4yNe2lknmc-14" value="&lt;font style=&quot;font-size: 14px;&quot;&gt;&lt;u&gt;Beginner-level&lt;/u&gt;&lt;/font&gt;" style="text;html=1;align=center;verticalAlign=middle;whiteSpace=wrap;rounded=0;" parent="TQXjRObuqB4yNe2lknmc-8" vertex="1">
          <mxGeometry x="20" y="30" width="100" height="30" as="geometry" />
        </mxCell>
        <mxCell id="TQXjRObuqB4yNe2lknmc-20" value="&lt;span style=&quot;font-size: 14px;&quot;&gt;&lt;u&gt;CSE-Contest1&lt;/u&gt;&lt;/span&gt;" style="text;html=1;align=center;verticalAlign=middle;whiteSpace=wrap;rounded=0;" parent="TQXjRObuqB4yNe2lknmc-8" vertex="1">
          <mxGeometry x="20" y="80" width="100" height="30" as="geometry" />
        </mxCell>
        <mxCell id="TQXjRObuqB4yNe2lknmc-30" value="&lt;span style=&quot;font-size: 14px;&quot;&gt;&lt;u&gt;IIT-Contest1&lt;/u&gt;&lt;/span&gt;" style="text;html=1;align=center;verticalAlign=middle;whiteSpace=wrap;rounded=0;" parent="TQXjRObuqB4yNe2lknmc-8" vertex="1">
          <mxGeometry x="20" y="120" width="100" height="30" as="geometry" />
        </mxCell>
        <mxCell id="TQXjRObuqB4yNe2lknmc-11" value="&lt;font style=&quot;font-size: 14px;&quot;&gt;&lt;u&gt;2278986541&lt;/u&gt;&lt;/font&gt;" style="text;html=1;align=center;verticalAlign=middle;whiteSpace=wrap;rounded=0;" parent="1" vertex="1">
          <mxGeometry x="300" y="190" width="90" height="30" as="geometry" />
        </mxCell>
        <mxCell id="TQXjRObuqB4yNe2lknmc-32" value="&lt;font style=&quot;font-size: 18px;&quot;&gt;&lt;b&gt;Problem Repository&lt;/b&gt;&lt;/font&gt;" style="text;html=1;align=center;verticalAlign=middle;whiteSpace=wrap;rounded=0;fillColor=#dae8fc;strokeColor=#6c8ebf;" parent="1" vertex="1">
          <mxGeometry x="300" y="100" width="230" height="40" as="geometry" />
        </mxCell>
        <mxCell id="TQXjRObuqB4yNe2lknmc-35" style="edgeStyle=orthogonalEdgeStyle;rounded=0;orthogonalLoop=1;jettySize=auto;html=1;exitX=1;exitY=0.5;exitDx=0;exitDy=0;entryX=0;entryY=0.5;entryDx=0;entryDy=0;" parent="1" source="TQXjRObuqB4yNe2lknmc-33" target="TQXjRObuqB4yNe2lknmc-34" edge="1">
          <mxGeometry relative="1" as="geometry" />
        </mxCell>
        <mxCell id="TQXjRObuqB4yNe2lknmc-33" value="&lt;font style=&quot;font-size: 14px;&quot;&gt;&lt;b&gt;Click on&amp;nbsp;&lt;/b&gt;&lt;/font&gt;&lt;div&gt;&lt;font style=&quot;font-size: 14px;&quot;&gt;&lt;b&gt;&quot;Problem Name&quot;&lt;/b&gt;&lt;/font&gt;&lt;/div&gt;" style="rounded=0;whiteSpace=wrap;html=1;fillColor=#f8cecc;strokeColor=#b85450;" parent="1" vertex="1">
          <mxGeometry x="40" y="550" width="130" height="60" as="geometry" />
        </mxCell>
        <mxCell id="TQXjRObuqB4yNe2lknmc-34" value="&lt;font style=&quot;font-size: 14px;&quot;&gt;&lt;b&gt;Go to the problem_mentioned online judge&lt;/b&gt;&lt;/font&gt;" style="rounded=0;whiteSpace=wrap;html=1;fillColor=#dae8fc;strokeColor=#6c8ebf;" parent="1" vertex="1">
          <mxGeometry x="240" y="550" width="300" height="60" as="geometry" />
        </mxCell>
        <mxCell id="TQXjRObuqB4yNe2lknmc-36" value="&lt;font style=&quot;font-size: 14px;&quot;&gt;&lt;b&gt;Click on&amp;nbsp;&lt;/b&gt;&lt;/font&gt;&lt;div&gt;&lt;font style=&quot;font-size: 14px;&quot;&gt;&lt;b&gt;&quot;Your submission&quot;&lt;/b&gt;&lt;/font&gt;&lt;/div&gt;" style="rounded=0;whiteSpace=wrap;html=1;fillColor=#f8cecc;strokeColor=#b85450;" parent="1" vertex="1">
          <mxGeometry x="40" y="708" width="130" height="60" as="geometry" />
        </mxCell>
        <mxCell id="TQXjRObuqB4yNe2lknmc-38" value="" style="rounded=0;whiteSpace=wrap;html=1;" parent="1" vertex="1">
          <mxGeometry x="310" y="630" width="360" height="190" as="geometry" />
        </mxCell>
        <mxCell id="TQXjRObuqB4yNe2lknmc-39" value="&lt;b&gt;Submission ID&lt;/b&gt;" style="rounded=0;whiteSpace=wrap;html=1;fillColor=#fff2cc;strokeColor=#d6b656;" parent="1" vertex="1">
          <mxGeometry x="310" y="630" width="90" height="30" as="geometry" />
        </mxCell>
        <mxCell id="TQXjRObuqB4yNe2lknmc-40" value="&lt;b&gt;Status&lt;/b&gt;" style="rounded=0;whiteSpace=wrap;html=1;fillColor=#fff2cc;strokeColor=#d6b656;" parent="1" vertex="1">
          <mxGeometry x="400" y="630" width="90" height="30" as="geometry" />
        </mxCell>
        <mxCell id="TQXjRObuqB4yNe2lknmc-41" value="&lt;b&gt;Language&lt;/b&gt;" style="rounded=0;whiteSpace=wrap;html=1;fillColor=#fff2cc;strokeColor=#d6b656;" parent="1" vertex="1">
          <mxGeometry x="490" y="630" width="90" height="30" as="geometry" />
        </mxCell>
        <mxCell id="TQXjRObuqB4yNe2lknmc-42" value="&lt;b&gt;2278986538&lt;/b&gt;" style="rounded=0;whiteSpace=wrap;html=1;" parent="1" vertex="1">
          <mxGeometry x="310" y="660" width="90" height="30" as="geometry" />
        </mxCell>
        <mxCell id="TQXjRObuqB4yNe2lknmc-43" value="&lt;b&gt;Wrong&lt;/b&gt;" style="rounded=0;whiteSpace=wrap;html=1;" parent="1" vertex="1">
          <mxGeometry x="400" y="660" width="90" height="30" as="geometry" />
        </mxCell>
        <mxCell id="TQXjRObuqB4yNe2lknmc-44" value="&lt;b&gt;C++&lt;/b&gt;" style="rounded=0;whiteSpace=wrap;html=1;" parent="1" vertex="1">
          <mxGeometry x="490" y="660" width="90" height="30" as="geometry" />
        </mxCell>
        <mxCell id="TQXjRObuqB4yNe2lknmc-45" value="&lt;b&gt;Public/Private&lt;/b&gt;" style="rounded=0;whiteSpace=wrap;html=1;fillColor=#fff2cc;strokeColor=#d6b656;" parent="1" vertex="1">
          <mxGeometry x="580" y="630" width="90" height="30" as="geometry" />
        </mxCell>
        <mxCell id="TQXjRObuqB4yNe2lknmc-47" value="&lt;b&gt;Public&lt;/b&gt;" style="rounded=0;whiteSpace=wrap;html=1;" parent="1" vertex="1">
          <mxGeometry x="580" y="660" width="90" height="30" as="geometry" />
        </mxCell>
        <mxCell id="TQXjRObuqB4yNe2lknmc-48" value="&lt;b&gt;&lt;font style=&quot;font-size: 18px;&quot;&gt;CODE&lt;/font&gt;&lt;/b&gt;" style="text;html=1;align=center;verticalAlign=middle;whiteSpace=wrap;rounded=0;" parent="1" vertex="1">
          <mxGeometry x="450" y="730" width="60" height="30" as="geometry" />
        </mxCell>
        <mxCell id="TQXjRObuqB4yNe2lknmc-49" style="edgeStyle=orthogonalEdgeStyle;rounded=0;orthogonalLoop=1;jettySize=auto;html=1;exitX=1;exitY=0.5;exitDx=0;exitDy=0;entryX=-0.007;entryY=0.572;entryDx=0;entryDy=0;entryPerimeter=0;" parent="1" source="TQXjRObuqB4yNe2lknmc-36" target="TQXjRObuqB4yNe2lknmc-38" edge="1">
          <mxGeometry relative="1" as="geometry" />
        </mxCell>
        <mxCell id="TQXjRObuqB4yNe2lknmc-51" value="&lt;b&gt;&lt;font style=&quot;font-size: 14px;&quot;&gt;Search&lt;/font&gt;&lt;/b&gt;" style="rounded=0;whiteSpace=wrap;html=1;" parent="1" vertex="1">
          <mxGeometry x="640" y="120" width="110" height="30" as="geometry" />
        </mxCell>
        <mxCell id="TQXjRObuqB4yNe2lknmc-69" value="&lt;b&gt;Past Contest Details&lt;/b&gt;" style="rounded=0;whiteSpace=wrap;html=1;fillColor=#dae8fc;strokeColor=#6c8ebf;" parent="1" vertex="1">
          <mxGeometry x="895" y="694" width="135" height="52" as="geometry" />
        </mxCell>
        <mxCell id="TQXjRObuqB4yNe2lknmc-79" style="edgeStyle=orthogonalEdgeStyle;rounded=0;orthogonalLoop=1;jettySize=auto;html=1;" parent="1" source="TQXjRObuqB4yNe2lknmc-71" edge="1">
          <mxGeometry relative="1" as="geometry">
            <mxPoint x="894" y="720" as="targetPoint" />
          </mxGeometry>
        </mxCell>
        <mxCell id="TQXjRObuqB4yNe2lknmc-71" value="&lt;font style=&quot;font-size: 14px;&quot;&gt;&lt;b&gt;Click on&amp;nbsp;&lt;/b&gt;&lt;/font&gt;&lt;div&gt;&lt;font style=&quot;font-size: 14px;&quot;&gt;&lt;b&gt;&quot;Which Contest&quot;&lt;/b&gt;&lt;/font&gt;&lt;/div&gt;" style="rounded=0;whiteSpace=wrap;html=1;fillColor=#f8cecc;strokeColor=#b85450;" parent="1" vertex="1">
          <mxGeometry x="710" y="690" width="120" height="60" as="geometry" />
        </mxCell>
      </root>
    </mxGraphModel>
  </diagram>
</mxfile>
